<svg width="52" height="52" viewBox="0 0 52 52" fill="none" xmlns="http://www.w3.org/2000/svg">
<path d="M46.4286 5.57142H40.8572V1.85718C40.8572 0.83147 40.0257 0 39 0C37.9743 0 37.1428 0.83147 37.1428 1.85718V5.57142H14.8571V1.85718C14.8571 0.83147 14.0256 0 13 0C11.9744 0 11.1428 0.83147 11.1428 1.85718V5.57142H5.57142C2.49441 5.57142 0 8.06583 0 11.1428V46.4286C0 49.5056 2.49441 52 5.57142 52H46.4286C49.5056 52 52 49.5056 52 46.4286V11.1428C52 8.06583 49.5056 5.57142 46.4286 5.57142ZM48.2856 46.4286C48.2856 47.4543 47.4542 48.2858 46.4285 48.2858H5.57142C4.54572 48.2858 3.71425 47.4543 3.71425 46.4286V22.2857H48.2856V46.4286ZM48.2856 18.5715H3.71425V11.1428C3.71425 10.1171 4.54572 9.28567 5.57142 9.28567H11.1428V12.9999C11.1428 14.0256 11.9743 14.8571 13 14.8571C14.0257 14.8571 14.8572 14.0256 14.8572 12.9999V9.28567H37.1429V12.9999C37.1429 14.0256 37.9744 14.8571 39.0001 14.8571C40.0258 14.8571 40.8573 14.0256 40.8573 12.9999V9.28567H46.4287C47.4544 9.28567 48.2859 10.1171 48.2859 11.1428V18.5715H48.2856Z" fill="#2C2C2E"/>
<path d="M38.4103 26.5441C37.6906 25.849 36.5497 25.849 35.8301 26.5441L22.2859 40.0882L16.1703 33.9726C15.4325 33.2601 14.2568 33.2805 13.5443 34.0182C12.8492 34.7379 12.8492 35.8789 13.5443 36.5986L20.9729 44.0272C21.6982 44.7521 22.8737 44.7521 23.5989 44.0272L38.4559 29.1701C39.1685 28.4323 39.148 27.2567 38.4103 26.5441Z" fill="#2C2C2E"/>
</svg>
