<svg width="23" height="23" viewBox="0 0 23 23" fill="none" xmlns="http://www.w3.org/2000/svg">
<path d="M20.5357 2.46428H18.0714V0.821444C18.0714 0.367765 17.7037 0 17.25 0C16.7963 0 16.4285 0.367765 16.4285 0.821444V2.46428H6.57141V0.821444C6.57141 0.367765 6.20364 0 5.75001 0C5.29638 0 4.92857 0.367765 4.92857 0.821444V2.46428H2.46428C1.1033 2.46428 0 3.56758 0 4.92857V20.5357C0 21.8967 1.1033 23 2.46428 23H20.5357C21.8967 23 23 21.8967 23 20.5357V4.92857C23 3.56758 21.8967 2.46428 20.5357 2.46428ZM21.3571 20.5357C21.3571 20.9894 20.9893 21.3572 20.5357 21.3572H2.46428C2.01061 21.3572 1.64284 20.9894 1.64284 20.5357V9.85714H21.3571V20.5357ZM21.3571 8.2143H1.64284V4.92857C1.64284 4.47489 2.01061 4.10712 2.46428 4.10712H4.92857V5.74996C4.92857 6.20364 5.29633 6.57141 5.75001 6.57141C6.20369 6.57141 6.57146 6.20364 6.57146 5.74996V4.10712H16.4286V5.74996C16.4286 6.20364 16.7964 6.57141 17.25 6.57141C17.7037 6.57141 18.0715 6.20364 18.0715 5.74996V4.10712H20.5358C20.9894 4.10712 21.3572 4.47489 21.3572 4.92857V8.2143H21.3571Z" fill="#F2F2F2"/>
<path d="M16.9891 11.7407C16.6707 11.4333 16.1661 11.4333 15.8478 11.7407L9.85707 17.7314L7.15209 15.0264C6.82576 14.7112 6.30576 14.7203 5.9906 15.0466C5.68315 15.3649 5.68315 15.8696 5.9906 16.1879L9.27633 19.4736C9.59712 19.7943 10.1171 19.7943 10.4378 19.4736L17.0092 12.9022C17.3244 12.5759 17.3153 12.0559 16.9891 11.7407Z" fill="#F2F2F2"/>
</svg>
