<svg width="25" height="25" viewBox="0 0 25 25" fill="none" xmlns="http://www.w3.org/2000/svg">
<path fill-rule="evenodd" clip-rule="evenodd" d="M12.5 2C6.70101 2 2 6.70101 2 12.5C2 18.299 6.70101 23 12.5 23C18.299 23 23 18.299 23 12.5C23 6.70101 18.299 2 12.5 2ZM17.9338 10.5804C18.3234 10.1889 18.3219 9.55579 17.9304 9.1662C17.5389 8.77661 16.9058 8.77813 16.5162 9.16959L11.4776 14.2324L9.5338 12.2792C9.14421 11.8877 8.51105 11.8862 8.11959 12.2758C7.72813 12.6654 7.72661 13.2986 8.1162 13.69L10.7688 16.3554C10.9565 16.544 11.2116 16.65 11.4776 16.65C11.7437 16.65 11.9988 16.544 12.1864 16.3554L17.9338 10.5804Z" fill="#29A3D8"/>
</svg>
