<svg width="24" height="24" viewBox="0 0 24 24" fill="none" xmlns="http://www.w3.org/2000/svg">
<path d="M13 5H7C5.34315 5 4 6.34315 4 8V16C4 17.6569 5.34315 19 7 19H13" stroke="#2D2D2E" stroke-width="1.2" stroke-linecap="round"/>
<path d="M11 11.4C10.6686 11.4 10.4 11.6686 10.4 12C10.4 12.3314 10.6686 12.6 11 12.6L11 11.4ZM20.4243 12.4243C20.6586 12.19 20.6586 11.8101 20.4243 11.5757L16.6059 7.75736C16.3716 7.52305 15.9917 7.52304 15.7574 7.75736C15.523 7.99167 15.523 8.37157 15.7574 8.60589L19.1515 12L15.7574 15.3941C15.523 15.6284 15.523 16.0083 15.7574 16.2426C15.9917 16.477 16.3716 16.477 16.6059 16.2426L20.4243 12.4243ZM11 12.6L20 12.6L20 11.4L11 11.4L11 12.6Z" fill="#2D2D2E"/>
</svg>
