<svg width="23" height="23" viewBox="0 0 23 23" fill="none" xmlns="http://www.w3.org/2000/svg">
<rect x="10.499" y="18.7495" width="2.00017" height="2.7503" rx="1.00009" fill="#F2F2F2" stroke="#F2F2F2"/>
<rect x="21.5" y="10.4995" width="2.00024" height="2.75021" rx="1.00012" transform="rotate(90 21.5 10.4995)" fill="#F2F2F2" stroke="#F2F2F2"/>
<rect x="-1.06065" width="1.5002" height="2.55276" rx="0.750102" transform="matrix(-0.707099 0.707115 -0.707099 -0.707115 17.9286 18.3672)" fill="#F2F2F2" stroke="#F2F2F2" stroke-width="1.5"/>
<rect x="-5.96046e-08" y="-0.707115" width="2.0002" height="2.92792" rx="1.0001" transform="matrix(-0.707099 -0.707115 0.707099 -0.707115 5.87109 18.4689)" fill="#F2F2F2" stroke="#F2F2F2"/>
<rect x="-5.96046e-08" y="-0.707115" width="2.0002" height="2.95003" rx="1.0001" transform="matrix(-0.707099 -0.707115 0.707099 -0.707115 17.3818 6.86221)" fill="#F2F2F2" stroke="#F2F2F2"/>
<rect x="4.25" y="10.4995" width="2.00024" height="2.75021" rx="1.00012" transform="rotate(90 4.25 10.4995)" fill="#F2F2F2" stroke="#F2F2F2"/>
<rect x="-0.707099" width="2.0002" height="3.41135" rx="1.0001" transform="matrix(-0.707099 0.707115 -0.707099 -0.707115 6.53315 6.86694)" fill="#F2F2F2" stroke="#F2F2F2"/>
<rect x="10.5" y="1.5" width="2" height="3" rx="1" fill="#F2F2F2" stroke="#F2F2F2"/>
<mask id="path-9-inside-1_1006_714" fill="white">
<path d="M19.7509 11.5002C19.7509 16.0569 16.0571 19.7508 11.5005 19.7508C6.94386 19.7508 3.25 16.0569 3.25 11.5002C3.25 6.94345 6.94386 3.24951 11.5005 3.24951C16.0571 3.24951 19.7509 6.94345 19.7509 11.5002ZM5.56013 11.5002C5.56013 14.781 8.21971 17.4406 11.5005 17.4406C14.7812 17.4406 17.4408 14.781 17.4408 11.5002C17.4408 8.21933 14.7812 5.55969 11.5005 5.55969C8.21971 5.55969 5.56013 8.21933 5.56013 11.5002Z"/>
</mask>
<path d="M19.7509 11.5002C19.7509 16.0569 16.0571 19.7508 11.5005 19.7508C6.94386 19.7508 3.25 16.0569 3.25 11.5002C3.25 6.94345 6.94386 3.24951 11.5005 3.24951C16.0571 3.24951 19.7509 6.94345 19.7509 11.5002ZM5.56013 11.5002C5.56013 14.781 8.21971 17.4406 11.5005 17.4406C14.7812 17.4406 17.4408 14.781 17.4408 11.5002C17.4408 8.21933 14.7812 5.55969 11.5005 5.55969C8.21971 5.55969 5.56013 8.21933 5.56013 11.5002Z" fill="#F2F2F2" stroke="#F2F2F2" stroke-width="2" mask="url(#path-9-inside-1_1006_714)"/>
</svg>
