<svg width="24" height="24" viewBox="0 0 24 24" fill="none" xmlns="http://www.w3.org/2000/svg">
<mask id="path-1-inside-1_732_189" fill="white">
<path d="M6.68229 9.35643L3.16572 9.38949C2.62064 9.39461 2.18008 9.83535 2.17516 10.3804L2.15714 12.3785L2.13161 15.1746C2.12744 15.6306 2.43228 16.0317 2.87275 16.1497L5.56837 16.872C6.463 17.1117 7.37792 17.268 8.30139 17.339L9.47496 17.4292C11.2801 17.5679 12.9534 16.4768 13.5545 14.7691L14.3447 12.5241C14.5381 11.9747 14.2229 11.3769 13.6603 11.2262L10.0955 10.271L10.7981 8.82403C10.9632 8.4841 10.8913 8.07658 10.6199 7.81367C10.3391 7.54171 9.91193 7.48908 9.57353 7.68474L6.68229 9.35643Z"/>
</mask>
<path d="M6.68229 9.35643L3.16572 9.38949C2.62064 9.39461 2.18008 9.83535 2.17516 10.3804L2.15714 12.3785L2.13161 15.1746C2.12744 15.6306 2.43228 16.0317 2.87275 16.1497L5.56837 16.872C6.463 17.1117 7.37792 17.268 8.30139 17.339L9.47496 17.4292C11.2801 17.5679 12.9534 16.4768 13.5545 14.7691L14.3447 12.5241C14.5381 11.9747 14.2229 11.3769 13.6603 11.2262L10.0955 10.271L10.7981 8.82403C10.9632 8.4841 10.8913 8.07658 10.6199 7.81367C10.3391 7.54171 9.91193 7.48908 9.57353 7.68474L6.68229 9.35643Z" fill="#2D2D2E"/>
<path d="M3.16572 9.38949L3.17512 10.3894L3.17512 10.3894L3.16572 9.38949ZM6.68229 9.35643L6.69169 10.3564L6.95493 10.3539L7.18283 10.2221L6.68229 9.35643ZM9.57353 7.68474L10.0741 8.55045L10.0741 8.55045L9.57353 7.68474ZM10.7981 8.82403L9.89859 8.38719L9.89859 8.38719L10.7981 8.82403ZM10.0955 10.271L9.19591 9.83414C9.06558 10.1025 9.06189 10.4151 9.18584 10.6864C9.3098 10.9578 9.54845 11.1597 9.83663 11.2369L10.0955 10.271ZM14.3447 12.5241L13.4014 12.1921L13.4014 12.1921L14.3447 12.5241ZM13.5545 14.7691L12.6112 14.437L13.5545 14.7691ZM9.47496 17.4292L9.39834 18.4262L9.47496 17.4292ZM8.30139 17.339L8.37801 16.3419L8.37801 16.3419L8.30139 17.339ZM2.13161 15.1746L1.13165 15.1655L1.13165 15.1655L2.13161 15.1746ZM2.15714 12.3785L3.1571 12.3876L3.1571 12.3875L2.15714 12.3785ZM2.17516 10.3804L3.17512 10.3894L2.17516 10.3804ZM10.6199 7.81367L11.3156 7.09536L11.3156 7.09536L10.6199 7.81367ZM3.17512 10.3894L6.69169 10.3564L6.67288 8.35647L3.15632 8.38953L3.17512 10.3894ZM7.18283 10.2221L10.0741 8.55045L9.07299 6.81903L6.18174 8.49072L7.18283 10.2221ZM9.89859 8.38719L9.19591 9.83414L10.995 10.7078L11.6977 9.26087L9.89859 8.38719ZM9.83663 11.2369L13.4014 12.1921L13.9191 10.2602L10.3543 9.30506L9.83663 11.2369ZM13.4014 12.1921L12.6112 14.437L14.4978 15.1011L15.288 12.8562L13.4014 12.1921ZM9.55157 16.4321L8.37801 16.3419L8.22477 18.3361L9.39834 18.4262L9.55157 16.4321ZM5.82718 15.9061L3.13157 15.1838L2.61393 17.1156L5.30955 17.8379L5.82718 15.9061ZM3.13157 15.1838L3.1571 12.3876L1.15718 12.3694L1.13165 15.1655L3.13157 15.1838ZM3.1571 12.3875L3.17512 10.3894L1.1752 10.3714L1.15718 12.3695L3.1571 12.3875ZM3.13157 15.1838L3.13157 15.1838L1.13165 15.1655C1.12332 16.0775 1.733 16.8796 2.61393 17.1156L3.13157 15.1838ZM8.37801 16.3419C7.5161 16.2757 6.66218 16.1298 5.82718 15.9061L5.30955 17.8379C6.26383 18.0936 7.23974 18.2604 8.22477 18.3361L8.37801 16.3419ZM12.6112 14.437C12.1604 15.7179 10.9054 16.5362 9.55157 16.4321L9.39834 18.4262C11.6548 18.5996 13.7464 17.2358 14.4978 15.1011L12.6112 14.437ZM9.92414 8.53197C9.88524 8.4943 9.87493 8.4359 9.89859 8.38719L11.6977 9.26087C12.0515 8.53229 11.8974 7.65887 11.3156 7.09536L9.92414 8.53197ZM10.0741 8.55045C10.0256 8.57849 9.96437 8.57095 9.92414 8.53197L11.3156 7.09536C10.7138 6.51248 9.79828 6.39967 9.07299 6.81903L10.0741 8.55045ZM13.4014 12.1921L13.4014 12.1921L15.288 12.8562C15.6748 11.7573 15.0443 10.5618 13.9191 10.2602L13.4014 12.1921ZM3.15632 8.38953C2.06615 8.39978 1.18503 9.28125 1.1752 10.3714L3.17512 10.3894L3.17512 10.3894L3.15632 8.38953Z" fill="#2D2D2E" mask="url(#path-1-inside-1_732_189)"/>
<path d="M20.2192 10.0497L20.0898 10.5327L19.9034 10.4827L19.7989 10.3205L20.2192 10.0497ZM17.051 9.20078L17.5492 9.1586C17.563 9.3209 17.4968 9.47972 17.3719 9.58425C17.247 9.68877 17.079 9.7259 16.9216 9.68374L17.051 9.20078ZM13.6659 9.58195C13.5944 9.84869 13.3203 10.007 13.0535 9.93551C12.7868 9.86403 12.6285 9.58987 12.7 9.32313L13.6659 9.58195ZM15.0962 16.3037C14.8201 16.2991 14.6 16.0715 14.6047 15.7954C14.6093 15.5193 14.8369 15.2992 15.113 15.3039L15.0962 16.3037ZM16.9213 7.66796L17.4195 7.62578L16.9213 7.66796ZM21.103 10.8041L20.0898 10.5327L20.3486 9.56673L21.3618 9.83821L21.103 10.8041ZM19.7989 10.3205L17.9472 7.44599L18.7878 6.90444L20.6395 9.77891L19.7989 10.3205ZM17.4195 7.62578L17.5492 9.1586L16.5528 9.24296L16.423 7.71014L17.4195 7.62578ZM16.9216 9.68374L14.3415 8.99241L14.6003 8.02648L17.1804 8.71781L16.9216 9.68374ZM13.7292 9.34596L13.6659 9.58195L12.7 9.32313L12.7632 9.08714L13.7292 9.34596ZM20.4212 15.2804L21.4566 11.4165L22.4225 11.6753L21.3872 15.5392L20.4212 15.2804ZM15.113 15.3039L16.5743 15.3285L16.5575 16.3283L15.0962 16.3037L15.113 15.3039ZM16.5743 15.3285C17.6842 15.3471 18.7912 15.4465 19.8866 15.6256L19.7252 16.6125C18.6776 16.4412 17.6189 16.3462 16.5575 16.3283L16.5743 15.3285ZM21.3872 15.5392C21.1911 16.2708 20.4727 16.7348 19.7252 16.6125L19.8866 15.6256C20.1271 15.665 20.3582 15.5157 20.4212 15.2804L21.3872 15.5392ZM17.6793 7.31552C17.5221 7.33005 17.4062 7.46857 17.4195 7.62578L16.423 7.71014C16.3634 7.00562 16.8832 6.38486 17.5872 6.31977L17.6793 7.31552ZM17.9472 7.44599C17.8892 7.35596 17.7859 7.30566 17.6793 7.31552L17.5872 6.31977C18.0651 6.27559 18.5279 6.50096 18.7878 6.90444L17.9472 7.44599ZM14.3415 8.99241C14.0748 8.92093 13.8006 9.07923 13.7292 9.34596L12.7632 9.08714C12.9776 8.28694 13.8001 7.81207 14.6003 8.02648L14.3415 8.99241ZM21.3618 9.83821C22.162 10.0526 22.6369 10.8751 22.4225 11.6753L21.4566 11.4165C21.528 11.1498 21.3697 10.8756 21.103 10.8041L21.3618 9.83821Z" fill="#2D2D2E"/>
</svg>
