<svg width="24" height="24" viewBox="0 0 24 24" fill="none" xmlns="http://www.w3.org/2000/svg">
<path d="M6.23841 9.08253L2.47004 9.11631C1.94431 9.12102 1.51939 9.52628 1.51464 10.0275L1.49502 12.1026L1.46766 14.9587C1.46364 15.378 1.75766 15.7468 2.18249 15.8553L5.18337 16.6219C6.04625 16.8423 6.92868 16.9861 7.81937 17.0514L9.42202 17.1688C11.1631 17.2963 12.7769 16.2931 13.3567 14.7227L14.3004 12.1668C14.4869 11.6616 14.1829 11.112 13.6403 10.9734L9.81619 9.99649L10.5528 8.55048C10.7258 8.21077 10.6504 7.80353 10.3659 7.54079C10.0716 7.26901 9.62382 7.21641 9.2691 7.41194L6.23841 9.08253Z" fill="#F2F2F2"/>
<path fill-rule="evenodd" clip-rule="evenodd" d="M6.50137 9.99973L2.4791 10.0358L2.43212 14.9671L5.433 15.7337C6.23835 15.9395 7.06196 16.0736 7.89327 16.1345L9.49592 16.2519C10.8017 16.3476 12.0121 15.5952 12.447 14.4174L13.3906 11.8615L9.56656 10.8847C9.28861 10.8137 9.05843 10.6281 8.93888 10.3785C8.81932 10.129 8.82288 9.84158 8.94859 9.5948L9.6172 8.28221L6.50137 9.99973ZM10.5528 8.55048C10.7258 8.21077 10.6504 7.80353 10.3659 7.54079C10.0716 7.26901 9.62382 7.21641 9.2691 7.41194L6.23841 9.08253L2.47004 9.11631C1.94431 9.12102 1.51939 9.52628 1.51464 10.0275L1.46766 14.9587C1.46364 15.378 1.75766 15.7468 2.18249 15.8553L5.18337 16.6219C6.04625 16.8423 6.92868 16.9861 7.81937 17.0514L9.42202 17.1688C11.1631 17.2963 12.7769 16.2931 13.3567 14.7227L14.3004 12.1668C14.4869 11.6616 14.1829 11.112 13.6403 10.9734L9.81619 9.99649L10.5528 8.55048Z" fill="#F2F2F2"/>
<path fill-rule="evenodd" clip-rule="evenodd" d="M17.7623 7.00357C17.8896 6.99235 18.0129 7.04959 18.0822 7.15208L20.124 10.1738L21.4467 10.5117C21.704 10.5775 21.8567 10.8296 21.7877 11.0748L20.6675 15.0605C20.6034 15.2887 20.3684 15.4334 20.1239 15.3953L19.9796 15.3728C18.8956 15.2037 17.8003 15.11 16.7021 15.0924L15.0754 15.0663C14.8091 15.0621 14.5896 15.2644 14.5851 15.5183C14.5807 15.7722 14.7929 15.9815 15.0592 15.9857L16.6859 16.0118C17.7373 16.0287 18.7861 16.1184 19.8239 16.2802L19.9682 16.3027C20.7017 16.4171 21.4068 15.983 21.5992 15.2985L22.7194 11.3128C22.9262 10.577 22.4682 9.82072 21.6964 9.62356L20.7332 9.37752L18.893 6.65412C18.629 6.26341 18.1589 6.04517 17.6735 6.08796C16.9584 6.15099 16.4305 6.75209 16.4911 7.43431L16.5692 8.3138L14.447 7.77169C13.6752 7.57454 12.8819 8.01119 12.6751 8.74699L12.5872 9.05993C12.5182 9.3052 12.6709 9.5573 12.9282 9.62302C13.1854 9.68874 13.4499 9.54319 13.5188 9.29792L13.6068 8.98498C13.6757 8.73971 13.9401 8.59416 14.1974 8.65988L16.9828 9.37142C17.1345 9.41018 17.2966 9.37605 17.4171 9.27994C17.5376 9.18382 17.6014 9.03778 17.5881 8.88854L17.4521 7.35674C17.4362 7.17778 17.5747 7.0201 17.7623 7.00357Z" fill="#F2F2F2"/>
</svg>
