<svg width="555" height="555" xmlns="http://www.w3.org/2000/svg">
 <!-- Created with SVG Editor - http://github.com/mzalive/SVG Editor/ -->

 <g>
  <title>background</title>
  <rect fill="none" id="canvas_background" height="557" width="557" y="-1" x="-1"/>
  <g display="none" overflow="visible" y="0" x="0" height="100%" width="100%" id="canvasGrid">
   <rect fill="url(#gridpattern)" stroke-width="0" y="0" x="0" height="100%" width="100%"/>
  </g>
 </g>
 <g>
  <title>Layer 1</title>
  <defs>
   <style>.cls-1{fill:none;}</style>
  </defs>
  <g id="svg_10">
   <g transform="matrix(17.361109786563475,0,0,17.361109786563475,0,0) " id="svg_6">
    <path fill="#ffffff" id="svg_8" d="m20.021337,24.999979a1,1 0 0 1 -0.71,-0.29l-8,-8a1,1 0 0 1 0,-1.42l8,-8a1,1 0 1 1 1.42,1.42l-7.3,7.29l7.3,7.29a1,1 0 0 1 0,1.42a1,1 0 0 1 -0.71,0.29z"/>
   </g>
   <g transform="matrix(17.361109786563475,0,0,17.361109786563475,0,0) " id="svg_5">
    <rect fill="#ffffff" x="0.021337" y="-0.000021" id="svg_9" width="32" height="32" class="cls-1"/>
   </g>
  </g>
 </g>
</svg>