<svg width="29" height="34" xmlns="http://www.w3.org/2000/svg">
 <!-- Created with SVG Editor - http://github.com/mzalive/SVG Editor/ -->

 <g>
  <title>background</title>
  <rect fill="none" id="canvas_background" height="36" width="31" y="-1" x="-1"/>
  <g display="none" overflow="visible" y="0" x="0" height="100%" width="100%" id="canvasGrid">
   <rect fill="url(#gridpattern)" stroke-width="0" y="0" x="0" height="100%" width="100%"/>
  </g>
 </g>
 <g>
  <title>Layer 1</title>
  <g id="svg_24">
   <g transform="matrix(0.060843887319780514,0,0,0.060843887319780514,0,0) " id="svg_5">
    <g id="svg_6">
     <path fill="#ffffff" id="svg_7" d="m100.910984,386.442033c8.274,0 15.361,-5.006 21.243,-15.036c53.813,-95.423 81.806,-145.093 83.991,-149.028l-53.593,-93.458c-5.667,-9.804 -12.858,-14.707 -21.567,-14.707l-78.11,0c-5.019,0 -8.495,1.634 -10.459,4.902c-2.399,3.268 -2.289,7.301 0.325,12.087l52.613,91.176c0.214,0.232 0.214,0.331 0,0.331l-82.682,146.414c-2.172,4.149 -2.172,8.066 0,11.757c2.173,3.715 5.557,5.562 10.129,5.562l78.11,0z"/>
     <path fill="#ffffff" id="svg_8" d="m459.413984,7.670033l-78.758,0c-8.495,0 -15.472,4.902 -20.912,14.707c-111.769,198.263 -169.616,300.889 -173.539,307.848l110.784,203.282c5.227,9.804 12.418,14.706 21.567,14.706l78.104,0c4.791,0 8.28,-1.634 10.459,-4.902c2.172,-3.715 2.068,-7.748 -0.325,-12.099l-109.799,-200.987l0,-0.318l172.554,-305.242c2.393,-4.571 2.393,-8.592 0,-12.087c-1.965,-3.274 -5.343,-4.908 -10.135,-4.908z"/>
    </g>
   </g>
   <g transform="matrix(0.060843887319780514,0,0,0.060843887319780514,0,0) " id="svg_9"/>
   <g transform="matrix(0.060843887319780514,0,0,0.060843887319780514,0,0) " id="svg_10"/>
   <g transform="matrix(0.060843887319780514,0,0,0.060843887319780514,0,0) " id="svg_11"/>
   <g transform="matrix(0.060843887319780514,0,0,0.060843887319780514,0,0) " id="svg_12"/>
   <g transform="matrix(0.060843887319780514,0,0,0.060843887319780514,0,0) " id="svg_13"/>
   <g transform="matrix(0.060843887319780514,0,0,0.060843887319780514,0,0) " id="svg_14"/>
   <g transform="matrix(0.060843887319780514,0,0,0.060843887319780514,0,0) " id="svg_15"/>
   <g transform="matrix(0.060843887319780514,0,0,0.060843887319780514,0,0) " id="svg_16"/>
   <g transform="matrix(0.060843887319780514,0,0,0.060843887319780514,0,0) " id="svg_17"/>
   <g transform="matrix(0.060843887319780514,0,0,0.060843887319780514,0,0) " id="svg_18"/>
   <g transform="matrix(0.060843887319780514,0,0,0.060843887319780514,0,0) " id="svg_19"/>
   <g transform="matrix(0.060843887319780514,0,0,0.060843887319780514,0,0) " id="svg_20"/>
   <g transform="matrix(0.060843887319780514,0,0,0.060843887319780514,0,0) " id="svg_21"/>
   <g transform="matrix(0.060843887319780514,0,0,0.060843887319780514,0,0) " id="svg_22"/>
   <g transform="matrix(0.060843887319780514,0,0,0.060843887319780514,0,0) " id="svg_23"/>
  </g>
 </g>
</svg>