<svg width="70" height="42" viewBox="0 0 70 42" fill="none" xmlns="http://www.w3.org/2000/svg">
<path d="M37.5 3L17 23.5L31.5 38.5" stroke="#EFEFEF" stroke-width="6" stroke-linecap="round"/>
<path d="M8.5 11.5L12.5 15.5L3 25" stroke="#EFEFEF" stroke-width="6" stroke-linecap="round"/>
<path d="M44.2393 20.674H46.892C46.8537 18.3409 44.9361 16.7301 42.0213 16.7301C39.1513 16.7301 37.0483 18.3153 37.0611 20.6932C37.0547 22.6236 38.4162 23.7294 40.6278 24.2599L42.0533 24.6179C43.4787 24.9631 44.2713 25.3722 44.2777 26.2543C44.2713 27.2131 43.3636 27.8651 41.9574 27.8651C40.5192 27.8651 39.4837 27.2003 39.3942 25.8899H36.7159C36.7862 28.7216 38.8125 30.1854 41.9893 30.1854C45.1854 30.1854 47.0646 28.6577 47.071 26.2607C47.0646 24.081 45.4219 22.924 43.1463 22.4126L41.9702 22.1314C40.8324 21.8693 39.88 21.4474 39.8991 20.5078C39.8991 19.6641 40.647 19.044 42.0021 19.044C43.3253 19.044 44.1371 19.6449 44.2393 20.674ZM48.6116 30H51.3346V20.1818H48.6116V30ZM49.9795 18.9162C50.7913 18.9162 51.456 18.2962 51.456 17.5355C51.456 16.7812 50.7913 16.1612 49.9795 16.1612C49.1741 16.1612 48.5093 16.7812 48.5093 17.5355C48.5093 18.2962 49.1741 18.9162 49.9795 18.9162ZM58.4682 20.1818H56.6209V17.8295H53.8979V20.1818H52.5555V22.2273H53.8979V27.3409C53.8851 29.2649 55.1954 30.2173 57.1706 30.1342C57.8737 30.1087 58.3723 29.968 58.6471 29.8786L58.2189 27.8523C58.0846 27.8778 57.797 27.9418 57.5413 27.9418C56.998 27.9418 56.6209 27.7372 56.6209 26.983V22.2273H58.4682V20.1818ZM64.3409 30.1918C66.7699 30.1918 68.4063 29.0092 68.7898 27.1875L66.2713 27.0213C65.9965 27.7692 65.2933 28.1591 64.3857 28.1591C63.0242 28.1591 62.1612 27.2578 62.1612 25.794V25.7876H68.8473V25.0398C68.8473 21.7031 66.8274 20.054 64.2323 20.054C61.3431 20.054 59.4702 22.1058 59.4702 25.1357C59.4702 28.2486 61.3175 30.1918 64.3409 30.1918ZM62.1612 24.1001C62.2188 22.9815 63.0689 22.0866 64.277 22.0866C65.4595 22.0866 66.2777 22.9304 66.2841 24.1001H62.1612Z" fill="#EAEAEA"/>
</svg>
