<svg width="54" height="54" viewBox="0 0 54 54" fill="none" xmlns="http://www.w3.org/2000/svg">
<path d="M28.6945 20.4033H22.7637C21.9903 20.4033 21.3304 20.9624 21.2032 21.7253L19.5086 31.8925C19.3478 32.8569 20.0929 33.7346 21.0691 33.7346H27.0001C29.0991 33.6509 29.0975 30.6533 27.0001 30.5705H22.9368L23.2567 28.651H27.0001C29.0991 28.5673 29.0975 25.5697 27.0001 25.4869H23.784L24.1039 23.5674H28.6945C30.7936 23.4837 30.792 20.4861 28.6945 20.4033V20.4033Z" fill="#F2F2F2"/>
<path d="M17.0929 20.4241C16.2311 20.2806 15.416 20.8626 15.2723 21.7245L14.3777 27.0929L11.4698 21.2771C11.1633 20.6642 10.4976 20.3184 9.81951 20.4202C9.14187 20.522 8.60683 21.0487 8.49429 21.7246L6.79973 31.8918C6.65608 32.7536 7.23827 33.5688 8.10016 33.7124C9.32845 33.9171 9.84725 32.8527 9.92076 32.412L10.8154 27.0436L13.7233 32.8594C14.0298 33.4724 14.6962 33.818 15.3736 33.7163C16.0512 33.6144 16.5863 33.0878 16.6988 32.4119L18.3934 22.2447C18.537 21.3828 17.9548 20.5677 17.0929 20.4241V20.4241Z" fill="#F2F2F2"/>
<path d="M46.3473 20.5697C45.5658 20.1789 44.6156 20.4958 44.2249 21.2772L41.2033 27.3202L40.4131 23.369C40.2849 22.728 39.7758 22.232 39.1319 22.1204C38.4882 22.0091 37.8416 22.3048 37.5053 22.8652L35.3602 26.4402V21.9846C35.2766 19.8855 32.279 19.8871 32.1962 21.9846V32.1518C32.2086 33.7501 34.3008 34.3307 35.1347 32.9657L38.113 28.002L39.0049 32.462C39.1375 33.1247 39.6763 33.6301 40.3463 33.7198C41.0161 33.8099 41.669 33.4638 41.9712 32.8592L47.0548 22.6921C47.4456 21.9107 47.1289 20.9605 46.3473 20.5697V20.5697Z" fill="#F2F2F2"/>
<path d="M27 0.0693359C12.1121 0.0693359 0 12.1815 0 27.0693C1.4831 62.8885 52.5224 62.8781 54 27.0691C54 12.1815 41.8879 0.0693359 27 0.0693359V0.0693359ZM27 50.9053C13.8568 50.9053 3.16406 40.2125 3.16406 27.0693C4.47335 -4.55231 49.5315 -4.54313 50.8359 27.0695C50.8359 40.2125 40.1432 50.9053 27 50.9053Z" fill="#F2F2F2"/>
</svg>
