<svg width="50" height="50" viewBox="0 0 50 50" fill="none" xmlns="http://www.w3.org/2000/svg">
<path d="M26.5692 18.8919H21.0777C20.3616 18.8919 19.7506 19.4096 19.6328 20.116L18.0637 29.5301C17.9148 30.423 18.6048 31.2357 19.5086 31.2357H25.0003C26.9438 31.1582 26.9423 28.3827 25.0003 28.306H21.238L21.5342 26.5287H25.0003C26.9438 26.4512 26.9423 23.6756 25.0003 23.599H22.0224L22.3186 21.8217H26.5692C28.5128 21.7442 28.5113 18.9686 26.5692 18.8919Z" fill="#2C2C2E"/>
<path d="M15.8268 18.9112C15.0288 18.7783 14.2741 19.3172 14.141 20.1153L13.3127 25.086L10.6202 19.701C10.3364 19.1335 9.72 18.8133 9.09213 18.9076C8.46469 19.0019 7.96928 19.4895 7.86508 20.1154L6.29604 29.5295C6.16303 30.3274 6.7021 31.0822 7.50014 31.2152C8.63745 31.4047 9.11782 30.4192 9.18588 30.0111L10.0143 25.0404L12.7068 30.4254C12.9906 30.993 13.6076 31.313 14.2348 31.2188C14.8622 31.1245 15.3577 30.6369 15.4618 30.011L17.0309 20.597C17.1639 19.7989 16.6248 19.0442 15.8268 18.9112Z" fill="#2C2C2E"/>
<path d="M42.9144 19.046C42.1908 18.6842 41.311 18.9776 40.9492 19.7011L38.1514 25.2965L37.4198 21.638C37.3011 21.0445 36.8297 20.5852 36.2335 20.4819C35.6374 20.3788 35.0387 20.6526 34.7274 21.1715L32.7412 24.4817V20.3561C32.6637 18.4125 29.8882 18.414 29.8115 20.3561V29.7702C29.823 31.2501 31.7602 31.7877 32.5324 30.5238L35.29 25.9278L36.1159 30.0574C36.2387 30.671 36.7375 31.139 37.3579 31.222C37.9781 31.3055 38.5826 30.985 38.8624 30.4252L43.5695 21.0112C43.9313 20.2877 43.6381 19.4079 42.9144 19.046Z" fill="#2C2C2E"/>
<path d="M25 0.064209C11.2149 0.064209 0 11.2792 0 25.0642C1.37324 58.2301 48.6319 58.2205 50 25.064C50 11.2792 38.7851 0.064209 25 0.064209ZM25 47.1345C12.8304 47.1345 2.92969 37.2338 2.92969 25.0642C4.14199 -4.21509 45.8625 -4.20659 47.0703 25.0644C47.0703 37.2338 37.1696 47.1345 25 47.1345Z" fill="#2C2C2E"/>
</svg>
