<svg width="26" height="26" viewBox="0 0 26 26" fill="none" xmlns="http://www.w3.org/2000/svg">
<path d="M14.0491 6.90909H11.9461L12.1123 16.2351H13.8829L14.0491 6.90909ZM12.9944 20.1214C13.6911 20.1214 14.2728 19.5526 14.2728 18.843C14.2728 18.1463 13.6911 17.571 12.9944 17.571C12.2913 17.571 11.716 18.1463 11.716 18.843C11.716 19.5526 12.2913 20.1214 12.9944 20.1214Z" fill="#181818"/>
<path d="M26 13C26 20.1797 20.1797 26 13 26C5.8203 26 0 20.1797 0 13C0 5.8203 5.8203 0 13 0C20.1797 0 26 5.8203 26 13ZM1.76274 13C1.76274 19.2062 6.79383 24.2373 13 24.2373C19.2062 24.2373 24.2373 19.2062 24.2373 13C24.2373 6.79383 19.2062 1.76274 13 1.76274C6.79383 1.76274 1.76274 6.79383 1.76274 13Z" fill="#181818"/>
</svg>
