<svg width="54" height="54" viewBox="0 0 54 54" fill="none" xmlns="http://www.w3.org/2000/svg">
<path d="M23.0625 29.251H15.1875C14.256 29.251 13.5 28.495 13.5 27.5635V19.6885C13.5 18.757 14.256 18.001 15.1875 18.001H23.0625C23.994 18.001 24.75 18.757 24.75 19.6885V27.5635C24.75 28.495 23.994 29.251 23.0625 29.251Z" fill="#2C2C2E"/>
<path d="M23.0625 45H15.1875C14.256 45 13.5 44.244 13.5 43.3125V35.4375C13.5 34.506 14.256 33.75 15.1875 33.75H23.0625C23.994 33.75 24.75 34.506 24.75 35.4375V43.3125C24.75 44.244 23.994 45 23.0625 45Z" fill="#2C2C2E"/>
<path d="M38.8125 29.251H30.9375C30.006 29.251 29.25 28.495 29.25 27.5635V19.6885C29.25 18.757 30.006 18.001 30.9375 18.001H38.8125C39.744 18.001 40.5 18.757 40.5 19.6885V27.5635C40.5 28.495 39.744 29.251 38.8125 29.251Z" fill="#2C2C2E"/>
<path d="M38.8125 45H30.9375C30.006 45 29.25 44.244 29.25 43.3125V35.4375C29.25 34.506 30.006 33.75 30.9375 33.75H38.8125C39.744 33.75 40.5 34.506 40.5 35.4375V43.3125C40.5 44.244 39.744 45 38.8125 45Z" fill="#2C2C2E"/>
<path d="M47.25 2.24902H6.75C3.0285 2.24902 0 5.27752 0 8.99902V44.999C0 48.7205 3.0285 51.749 6.75 51.749H47.25C50.9715 51.749 54 48.7205 54 44.999V8.99902C54 5.27752 50.9715 2.24902 47.25 2.24902ZM47.25 47.249H6.75C5.51025 47.249 4.5 46.241 4.5 44.999V13.499H49.5V44.999C49.5 46.241 48.4897 47.249 47.25 47.249Z" fill="#2C2C2E"/>
</svg>
