<svg width="23" height="23" viewBox="0 0 23 23" fill="none" xmlns="http://www.w3.org/2000/svg">
<path d="M8.177 16.2617H3.46021C3.08807 16.2617 2.78638 16.5634 2.78638 16.9355C2.78638 17.3077 3.08807 17.6094 3.46021 17.6094H8.177C8.54913 17.6094 8.85083 17.3077 8.85083 16.9355C8.85083 16.5634 8.54913 16.2617 8.177 16.2617Z" fill="#F2F2F2"/>
<path d="M8.177 13.5664H3.46021C3.08807 13.5664 2.78638 13.8681 2.78638 14.2402C2.78638 14.6124 3.08807 14.9141 3.46021 14.9141H8.177C8.54913 14.9141 8.85083 14.6124 8.85083 14.2402C8.85083 13.8681 8.54913 13.5664 8.177 13.5664Z" fill="#F2F2F2"/>
<path d="M8.177 10.8711H3.46021C3.08807 10.8711 2.78638 11.1728 2.78638 11.5449C2.78638 11.9171 3.08807 12.2188 3.46021 12.2188H8.177C8.54913 12.2188 8.85083 11.9171 8.85083 11.5449C8.85083 11.1728 8.54913 10.8711 8.177 10.8711Z" fill="#F2F2F2"/>
<path d="M3.4602 8.17578H12.8938C13.2659 8.17578 13.5676 7.87409 13.5676 7.50195C13.5676 7.12982 13.2659 6.82812 12.8938 6.82812H3.4602C3.08807 6.82812 2.78638 7.12982 2.78638 7.50195C2.78638 7.87409 3.08807 8.17578 3.4602 8.17578Z" fill="#F2F2F2"/>
<path d="M22.9998 6.75719C22.9998 6.63006 22.9805 5.50612 22.326 4.85161C21.6711 4.19674 20.5464 4.17778 20.4202 4.17778C20.4202 4.17778 20.4202 4.17778 20.4201 4.17778C20.4199 4.17778 20.4197 4.17782 20.4195 4.17782C20.2502 4.17796 20.073 4.24579 19.9437 4.37508C19.9437 4.37512 19.9437 4.37512 19.9436 4.37517L17.6113 6.66474V0.673828C17.6113 0.301695 17.3096 0 16.9375 0H14.916C14.5438 0 14.2421 0.301695 14.2421 0.673828C14.2421 1.04538 13.9399 1.34766 13.5683 1.34766C13.1968 1.34766 12.8945 1.04538 12.8945 0.673828C12.8945 0.301695 12.5928 0 12.2207 0H10.1992C9.82704 0 9.52535 0.301695 9.52535 0.673828C9.52535 1.04538 9.22307 1.34766 8.85152 1.34766C8.47997 1.34766 8.17769 1.04538 8.17769 0.673828C8.17769 0.301695 7.87599 0 7.50386 0H5.48238C5.11024 0 4.80855 0.301695 4.80855 0.673828C4.80855 1.04538 4.50627 1.34766 4.13472 1.34766C3.76317 1.34766 3.46089 1.04538 3.46089 0.673828C3.46089 0.301695 3.1592 0 2.78706 0H0.675736C0.497082 0 0.32566 0.0710215 0.19934 0.197342C0.0729297 0.323752 0.00195312 0.495129 0.00195312 0.673828V19.6309C0.00195312 21.4886 1.51335 23 3.37109 23H18.2852C19.3998 23 20.3066 22.0932 20.3066 20.9785V16.9355C20.3066 16.5634 20.0049 16.2617 19.6328 16.2617H17.6113V12.3823C23.1612 6.83239 19.6958 10.3128 22.8023 7.23404C22.931 7.10547 22.9999 6.92862 22.9998 6.75719ZM21.6308 6.49966L19.9458 8.14195C18.9372 7.13328 19.0158 7.21189 18.9929 7.18898L20.6781 5.54655C20.9269 5.58195 21.2322 5.6637 21.373 5.80449C21.5095 5.94096 21.5941 6.2414 21.6308 6.49966ZM13.4737 14.6141C13.1058 14.982 12.6503 15.2635 12.1568 15.428L11.4819 15.6529L11.7069 14.978C11.8714 14.4845 12.1528 14.0291 12.5207 13.6611L18.04 8.14191C19.0486 9.15059 18.97 9.07197 18.9929 9.09488C18.3918 9.69594 14.1554 13.9323 13.4737 14.6141V14.6141ZM18.959 20.9785C18.959 21.3501 18.6567 21.6523 18.2852 21.6523C17.9136 21.6523 17.6113 21.3501 17.6113 20.9785V17.6094H18.959V20.9785ZM16.2637 20.9785C16.2637 21.2147 16.3048 21.4414 16.3796 21.6523H3.37109C2.25645 21.6523 1.34961 20.7455 1.34961 19.6309V1.34766H2.22873C2.5068 2.13204 3.25623 2.69531 4.13477 2.69531C5.0133 2.69531 5.76269 2.13204 6.0408 1.34766H6.94557C7.22364 2.13204 7.97307 2.69531 8.85161 2.69531C9.73014 2.69531 10.4795 2.13204 10.7576 1.34766H11.6624C11.9405 2.13204 12.6899 2.69531 13.5684 2.69531C14.447 2.69531 15.1964 2.13204 15.4745 1.34766H16.2638V8.01231L11.5677 12.7082C11.0526 13.2233 10.6586 13.8609 10.4283 14.5519L9.77718 16.5053C9.69645 16.7474 9.75948 17.0144 9.93997 17.1948C10.1211 17.376 10.3882 17.4381 10.6295 17.3576L12.5829 16.7065C13.274 16.4761 13.9115 16.0821 14.4266 15.567L16.2637 13.73C16.2637 15.251 16.2637 19.4562 16.2637 20.9785V20.9785Z" fill="#F2F2F2"/>
</svg>
