<svg width="52" height="52" viewBox="0 0 52 52" fill="none" xmlns="http://www.w3.org/2000/svg">
<path d="M7.88401 24.1548C9.10199 24.1548 10.2043 23.6662 11.0189 22.8815L15.4878 25.1157C15.4654 25.2977 15.4324 25.4766 15.4324 25.6645C15.4324 28.1618 17.4642 30.1935 19.9614 30.1935C22.4587 30.1935 24.4905 28.1618 24.4905 25.6645C24.4905 24.9675 24.319 24.3149 24.0364 23.7244L30.0987 17.6621C30.6892 17.9447 31.3418 18.1161 32.0389 18.1161C34.5361 18.1161 36.5679 16.0844 36.5679 13.5871C36.5679 13.1169 36.4755 12.6722 36.3418 12.2457L41.6092 8.29612C42.3279 8.7762 43.1892 9.05806 44.1163 9.05806C46.6136 9.05806 48.6453 7.02632 48.6453 4.52903C48.6453 2.03177 46.6136 0 44.1163 0C41.619 0 39.5872 2.03177 39.5872 4.52903C39.5872 4.99924 39.6796 5.44388 39.8133 5.87046L34.5459 9.82C33.8273 9.33993 32.9659 9.05806 32.0389 9.05806C29.5416 9.05806 27.5098 11.0899 27.5098 13.5871C27.5098 14.2841 27.6813 14.9367 27.9639 15.5273L21.9016 21.5896C21.3111 21.3069 20.6585 21.1355 19.9614 21.1355C18.7435 21.1355 17.6411 21.6242 16.8265 22.4089L12.3576 20.1747C12.38 19.9926 12.413 19.8137 12.413 19.6258C12.413 17.1286 10.3813 15.0968 7.88401 15.0968C5.38675 15.0968 3.35498 17.1286 3.35498 19.6258C3.35498 22.1231 5.38675 24.1548 7.88401 24.1548Z" fill="#2C2C2E"/>
<path d="M50.4766 48.9417H48.8515V16.6259C48.8515 15.7809 48.17 15.0968 47.3281 15.0968H41.2344C40.3925 15.0968 39.7109 15.7809 39.7109 16.6259V48.9417H36.6641V25.8007C36.6641 24.9557 35.9825 24.2716 35.1406 24.2716H29.0469C28.205 24.2716 27.5234 24.9557 27.5234 25.8007V48.9417H24.4766V38.0339C24.4766 37.1888 23.795 36.5047 22.9531 36.5047H16.8594C16.0175 36.5047 15.3359 37.1888 15.3359 38.0339V48.9417H12.2891V31.9173C12.2891 31.0723 11.6075 30.3882 10.7656 30.3882H4.67188C3.83002 30.3882 3.14844 31.0723 3.14844 31.9173V48.9417H1.52344C0.68158 48.9417 0 49.6258 0 50.4709C0 51.3159 0.68158 52 1.52344 52H50.4766C51.3184 52 52 51.3159 52 50.4709C52 49.6258 51.3184 48.9417 50.4766 48.9417Z" fill="#2C2C2E"/>
</svg>
