<svg width="93" height="93" viewBox="0 0 93 93" fill="none" xmlns="http://www.w3.org/2000/svg">
<path d="M14.1 43.2C16.2783 43.2 18.2498 42.326 19.7067 40.9226L27.6991 44.9184C27.6591 45.244 27.6 45.5639 27.6 45.9C27.6 50.3663 31.2338 54 35.7 54C40.1663 54 43.8 50.3663 43.8 45.9C43.8 44.6534 43.4934 43.4862 42.9879 42.4301L53.8301 31.5879C54.8862 32.0934 56.0534 32.4 57.3 32.4C61.7663 32.4 65.4 28.7663 65.4 24.3C65.4 23.4591 65.2348 22.6638 64.9957 21.9009L74.4162 14.8373C75.7015 15.6959 77.242 16.2 78.9 16.2C83.3663 16.2 87 12.5663 87 8.1C87 3.63375 83.3663 0 78.9 0C74.4338 0 70.8 3.63375 70.8 8.1C70.8 8.94094 70.9652 9.73617 71.2043 10.4991L61.7838 17.5627C60.4985 16.7041 58.958 16.2 57.3 16.2C52.8338 16.2 49.2 19.8338 49.2 24.3C49.2 25.5466 49.5066 26.7138 50.0121 27.7699L39.1699 38.6121C38.1138 38.1066 36.9466 37.8 35.7 37.8C33.5217 37.8 31.5502 38.674 30.0933 40.0774L22.1009 36.0816C22.1409 35.756 22.2 35.4361 22.2 35.1C22.2 30.6338 18.5663 27 14.1 27C9.63375 27 6 30.6338 6 35.1C6 39.5663 9.63375 43.2 14.1 43.2V43.2Z" fill="#F2F2F2"/>
<path d="M90.2754 87.5304H87.3691V29.7348C87.3691 28.2235 86.1502 27 84.6445 27H73.7461C72.2405 27 71.0215 28.2235 71.0215 29.7348V87.5304H65.5723V46.1436C65.5723 44.6324 64.3533 43.4088 62.8477 43.4088H51.9492C50.4436 43.4088 49.2246 44.6324 49.2246 46.1436V87.5304H43.7754V68.0221C43.7754 66.5108 42.5564 65.2873 41.0508 65.2873H30.1523C28.6467 65.2873 27.4277 66.5108 27.4277 68.0221V87.5304H21.9785V57.0829C21.9785 55.5716 20.7595 54.3481 19.2539 54.3481H8.35547C6.84984 54.3481 5.63086 55.5716 5.63086 57.0829V87.5304H2.72461C1.21898 87.5304 0 88.7539 0 90.2652C0 91.7765 1.21898 93 2.72461 93H90.2754C91.781 93 93 91.7765 93 90.2652C93 88.7539 91.781 87.5304 90.2754 87.5304Z" fill="#F2F2F2"/>
</svg>
