<svg width="16" height="19" viewBox="0 0 16 19" fill="none" xmlns="http://www.w3.org/2000/svg">
<path d="M9 3.06946V2H10C10.5522 2 11 1.55225 11 1C11 0.447754 10.5522 0 10 0H6C5.44775 0 5 0.447754 5 1C5 1.55225 5.44775 2 6 2H7V3.06946C3.06006 3.56409 0 6.92822 0 11C0 15.4111 3.58887 19 8 19C12.4111 19 16 15.4111 16 11C16 6.92822 12.9399 3.56409 9 3.06946ZM8 17C4.69141 17 2 14.3086 2 11C2 7.69141 4.69141 5 8 5C11.3086 5 14 7.69141 14 11C14 14.3086 11.3086 17 8 17Z" fill="#3C3C3E"/>
<path d="M9.29297 8.29297L7.29297 10.293C6.90234 10.6836 6.90234 11.3164 7.29297 11.707C7.48828 11.9023 7.74414 12 8 12C8.25586 12 8.51172 11.9023 8.70703 11.707L10.707 9.70703C11.0977 9.31641 11.0977 8.68359 10.707 8.29297C10.3164 7.90234 9.68359 7.90234 9.29297 8.29297Z" fill="#3C3C3E"/>
</svg>
