<svg width="42" height="42" viewBox="0 0 42 42" fill="none" xmlns="http://www.w3.org/2000/svg">
<path d="M23.3116 8.10641C23.5295 7.14362 22.9251 6.17477 21.9428 6.07695C19.1957 5.80338 16.4138 6.31895 13.9312 7.582C10.9149 9.11652 8.53043 11.6577 7.19072 14.7654C5.85101 17.873 5.64047 21.3514 6.59558 24.598C7.55069 27.8445 9.61128 30.6548 12.4204 32.5419C15.2295 34.429 18.6102 35.2741 21.9769 34.9308C25.3436 34.5876 28.4842 33.0775 30.8546 30.6623C33.2251 28.247 34.6761 25.0788 34.9563 21.7062C35.187 18.9304 34.6124 16.16 33.3205 13.7202C32.8586 12.8479 31.7331 12.6547 30.9242 13.2204V13.2204C30.1152 13.7861 29.9333 14.8962 30.3597 15.7865C31.193 17.5265 31.5554 19.4665 31.3939 21.4103C31.1827 23.9513 30.0895 26.3385 28.3034 28.1583C26.5173 29.9781 24.151 31.1159 21.6143 31.3746C19.0776 31.6332 16.5304 30.9964 14.4138 29.5746C12.2972 28.1527 10.7446 26.0353 10.025 23.5891C9.30532 21.1429 9.46395 18.522 10.4734 16.1805C11.4828 13.839 13.2795 11.9243 15.5521 10.7681C17.2905 9.88368 19.2235 9.48568 21.1494 9.59926C22.1348 9.65738 23.0938 9.0692 23.3116 8.10641V8.10641Z" fill="#E5E5E5"/>
<rect x="14.0862" y="19.5996" width="2.8" height="2.7618" rx="1.3809" transform="rotate(45 14.0862 19.5996)" fill="#E5E5E5"/>
<rect x="21.8" y="22.334" width="2.8" height="9.33333" rx="1.4" transform="rotate(-180 21.8 22.334)" fill="#E5E5E5"/>
<rect x="19" y="22.8008" width="2.8" height="9.33333" rx="1.4" transform="rotate(-90 19 22.8008)" fill="#E5E5E5"/>
<rect x="29.6569" y="6" width="3" height="8" rx="1.5" transform="rotate(45 29.6569 6)" fill="#E5E5E5"/>
<rect x="34.7782" y="8.65625" width="3" height="8" rx="1.5" transform="rotate(135 34.7782 8.65625)" fill="#E5E5E5"/>
<rect x="29.6569" y="6" width="3" height="8" rx="1.5" transform="rotate(45 29.6569 6)" fill="#E5E5E5"/>
<rect x="34.7782" y="8.65625" width="3" height="8" rx="1.5" transform="rotate(135 34.7782 8.65625)" fill="#E5E5E5"/>
</svg>
