<svg width="26" height="15" viewBox="0 0 26 15" fill="none" xmlns="http://www.w3.org/2000/svg">
<path d="M7.02439 14H4.04414C3.62253 14 3.24621 13.7356 3.10332 13.3389L1.12208 7.83891C1.04318 7.61986 1.04318 7.38014 1.12208 7.16109L3.10332 1.66109C3.24621 1.26443 3.62253 1 4.04414 1H7.02439C7.57667 1 8.02439 1.44772 8.02439 2V4.33333C8.02439 4.88562 8.4721 5.33333 9.02439 5.33333H16.9756C17.5279 5.33333 17.9756 4.88562 17.9756 4.33333V2C17.9756 1.44772 18.4233 1 18.9756 1H21.9559C22.3775 1 22.7538 1.26443 22.8967 1.66109L23.8293 4.25L24.8779 7.16109C24.9568 7.38014 24.9568 7.61986 24.8779 7.83891L22.8967 13.3389C22.7538 13.7356 22.3775 14 21.9559 14H18.9756C18.4233 14 17.9756 13.5523 17.9756 13V10.0476C17.9756 9.49533 17.5279 9.04762 16.9756 9.04762H9.02439C8.47211 9.04762 8.02439 9.49533 8.02439 10.0476V13C8.02439 13.5523 7.57667 14 7.02439 14Z" stroke="#F2F2F2" stroke-width="2"/>
</svg>
