<svg width="73" height="73" viewBox="0 0 73 73" fill="none" xmlns="http://www.w3.org/2000/svg">
<path d="M17 19C18.1036 19 19 18.1036 19 17C19 15.8964 18.1036 15 17 15C15.8964 15 15 15.8964 15 17C15 18.1036 15.8964 19 17 19Z" fill="#F2F2F2"/>
<path d="M0 17C0 26.3887 7.72076 34 17.0705 34C26.4203 34 34 26.3887 34 17C34 7.61126 26.4203 0 17.0705 0C7.72076 0 0 7.61126 0 17ZM17.0705 10.625C20.5711 10.625 23.4191 13.4849 23.4191 17C23.4191 20.5151 20.5711 23.375 17.0705 23.375C13.57 23.375 10.722 20.5151 10.722 17C10.722 13.4849 13.5695 10.625 17.0705 10.625Z" fill="#F2F2F2"/>
<path d="M26.6224 49.3752C26.3917 48.2003 26.2064 47.0177 25.9297 45.8511L23.9983 37.53C21.9727 38.1754 19.8581 38.6188 17.6224 38.6188C14.7625 38.6188 12.041 38.0322 9.54795 37C7.23307 52.0234 5.28887 60.5688 9.38363 71.612C9.69512 72.4467 10.4874 73 11.3754 73H58.1306C67.5877 73 74.8261 64.0806 72.592 54.3837C71.3201 48.8585 66.7119 44.411 61.1222 43.3166C53.6348 41.8387 46.2984 46.259 44.02 53.4514C40.7137 51.6272 34.8363 51.1211 30.4151 51.9796C30.341 52.0651 27.1995 53.6928 25.6039 55.2933C24.7729 56.123 23.4273 56.1241 22.5974 55.2911C21.7697 54.457 21.7697 53.1084 22.5996 52.276C23.7869 51.0878 25.1624 50.1604 26.6224 49.3752V49.3752Z" fill="#F2F2F2"/>
</svg>
