<svg width="50" height="50" viewBox="0 0 50 50" fill="none" xmlns="http://www.w3.org/2000/svg">
<path d="M11.6438 13.0137C12.3997 13.0137 13.0137 12.3997 13.0137 11.6438C13.0137 10.888 12.3997 10.274 11.6438 10.274C10.8879 10.274 10.2739 10.888 10.2739 11.6438C10.2739 12.3997 10.8879 13.0137 11.6438 13.0137Z" fill="#2C2C2E"/>
<path d="M0 11.6438C0 18.0745 5.28819 23.2877 11.6921 23.2877C18.0961 23.2877 23.2877 18.0745 23.2877 11.6438C23.2877 5.21319 18.0961 0 11.6921 0C5.28819 0 0 5.21319 0 11.6438ZM11.6921 7.2774C14.0898 7.2774 16.0405 9.23623 16.0405 11.6438C16.0405 14.0514 14.0898 16.0103 11.6921 16.0103C9.29452 16.0103 7.34384 14.0514 7.34384 11.6438C7.34384 9.23623 9.29418 7.2774 11.6921 7.2774Z" fill="#2C2C2E"/>
<path d="M18.2344 33.8186C18.0764 33.0139 17.9495 32.2039 17.76 31.4049L16.4371 25.7055C15.0497 26.1475 13.6014 26.4512 12.0701 26.4512C10.1112 26.4512 8.24717 26.0495 6.5396 25.3425C4.95407 35.6325 3.62243 41.4855 6.42706 49.0493C6.64041 49.621 7.18306 50 7.79128 50H39.8154C46.2929 50 51.2507 43.8908 49.7205 37.2491C48.8493 33.4647 45.693 30.4185 41.8644 29.6689C36.7361 28.6566 31.7111 31.6842 30.1506 36.6106C27.886 35.3611 23.8604 35.0145 20.8322 35.6025C20.7814 35.661 18.6297 36.7759 17.5368 37.8721C16.9677 38.4404 16.046 38.4412 15.4776 37.8706C14.9107 37.2993 14.9107 36.3756 15.4791 35.8055C16.2923 34.9916 17.2344 34.3564 18.2344 33.8186Z" fill="#2C2C2E"/>
</svg>
