<svg width="86" height="78" viewBox="0 0 86 78" fill="none" xmlns="http://www.w3.org/2000/svg">
<path d="M5.76558 0C4.73107 0 3.89407 0.94745 3.89407 2.1171C3.89407 5.65692 3.89407 12.7489 3.89407 16.2871C3.89407 17.4568 4.73123 18.4042 5.76558 18.4042C6.79701 18.4042 7.63579 17.4568 7.63579 16.2871C7.63579 14.9001 7.63579 12.9617 7.63579 10.9083C7.77857 10.9083 9.06631 10.9083 11.1832 10.9083C11.3418 11.545 11.6663 12.1478 12.1759 12.6354L33.702 33.2857V45.623H21.8602C19.3067 45.623 17.2331 47.6949 17.2331 50.2485V73.3714C17.2331 75.9264 19.305 77.9984 21.8602 77.9984C24.4138 77.9984 26.4826 75.9264 26.4826 73.3714V54.8756H42.2495L63.2399 76.5882C64.1471 77.5262 65.3539 78 66.5655 78C67.7242 78 68.8814 77.5683 69.779 76.6983C71.6164 74.9229 71.6646 71.9968 69.8894 70.1592L48.835 48.3801V34.4041C49.1441 34.2425 49.4423 34.047 49.7034 33.7876L72.3137 11.3061C72.4379 11.1818 72.5373 11.0452 72.6398 10.9084C75.271 10.9084 76.9874 10.9084 77.4006 10.9084C77.4006 12.9619 77.4006 14.8987 77.4006 16.2889C77.4006 17.4569 78.2378 18.4044 79.2707 18.4044C80.3036 18.4044 81.1423 17.4569 81.1423 16.2873C81.1423 12.7475 81.1423 5.65546 81.1423 2.11727C81.1423 0.947612 80.3036 0.00016265 79.2707 0.00016265C78.238 0.00016265 77.4006 0.947612 77.4006 2.11727C77.4006 3.50587 77.4006 5.44268 77.4006 7.49611C77.0137 7.49611 75.4854 7.49611 73.1385 7.49611C72.9647 7.03173 72.699 6.59365 72.3262 6.21942C70.9252 4.81067 68.6467 4.80596 67.2408 6.20545L65.9424 7.49611C52.3144 7.49611 29.9169 7.49611 17.2082 7.49611L17.1538 7.44495C15.742 6.09045 13.513 6.1231 12.1338 7.49611C9.44981 7.49611 7.79709 7.49611 7.63401 7.49611C7.63401 5.44268 7.63401 3.50587 7.63401 2.11564C7.63563 0.945988 6.79685 0 5.76558 0ZM35.541 10.9084C34.4071 12.3342 33.702 14.1143 33.702 16.0776C33.702 20.6924 37.4406 24.4277 42.0505 24.4277C46.6653 24.4277 50.4021 20.6922 50.4021 16.0776C50.4021 14.1143 49.697 12.3328 48.5631 10.9084C53.518 10.9084 58.3035 10.9084 62.5112 10.9084L46.4585 26.8694H37.4032L20.7667 10.9084C25.1172 10.9084 30.2135 10.9084 35.541 10.9084Z" fill="#F2F2F2"/>
<path d="M83.6741 15.5791C84.4538 15.5791 85.0845 14.9486 85.0845 14.1688C85.0845 11.7163 85.0845 6.6915 85.0829 4.23898C85.0829 3.4577 84.4522 2.82715 83.6725 2.82715C83.6136 2.82715 83.553 2.82715 83.4908 2.82715C82.7126 2.82715 82.0804 3.45624 82.0804 4.23752C82.0804 6.69004 82.0804 11.7163 82.0804 14.1689C82.0804 14.9502 82.7126 15.5808 83.4908 15.5808C83.553 15.5791 83.6136 15.5791 83.6741 15.5791Z" fill="#F2F2F2"/>
<path d="M1.59359 15.5791C2.37325 15.5791 3.00397 14.9486 3.00397 14.1688C3.00397 11.7163 3.00397 6.6915 3.00397 4.23898C3.00397 3.4577 2.37342 2.82715 1.59359 2.82715C1.53301 2.82715 1.47242 2.82715 1.40875 2.82715C0.632175 2.82715 0 3.45624 0 4.23752C0 6.69004 0 11.7163 0 14.1689C0 14.9502 0.632175 15.5808 1.41037 15.5808C1.47242 15.5791 1.53301 15.5791 1.59359 15.5791Z" fill="#F2F2F2"/>
</svg>
