<svg width="57" height="52" viewBox="0 0 57 52" fill="none" xmlns="http://www.w3.org/2000/svg">
<path d="M3.82147 0C3.13581 0 2.58105 0.631633 2.58105 1.4114C2.58105 3.77128 2.58105 8.49927 2.58105 10.8581C2.58105 11.6379 3.13592 12.2695 3.82147 12.2695C4.5051 12.2695 5.06103 11.6379 5.06103 10.8581C5.06103 9.9334 5.06103 8.64113 5.06103 7.2722C5.15567 7.2722 6.00917 7.2722 7.41222 7.2722C7.51734 7.69667 7.73242 8.09853 8.07018 8.4236L22.3375 22.1905V30.4153H14.4888C12.7964 30.4153 11.422 31.7966 11.422 33.499V48.9143C11.422 50.6176 12.7953 51.9989 14.4888 51.9989C16.1813 51.9989 17.5525 50.6176 17.5525 48.9143V36.5837H28.0027L41.9149 51.0588C42.5162 51.6841 43.3161 52 44.1191 52C44.8871 52 45.6541 51.7122 46.249 51.1322C47.4668 49.9486 47.4987 47.9979 46.3221 46.7728L32.3675 32.2534V22.9361C32.5724 22.8283 32.77 22.698 32.9431 22.5251L47.9289 7.5374C48.0113 7.45453 48.0771 7.36347 48.1451 7.27227C49.889 7.27227 51.0266 7.27227 51.3005 7.27227C51.3005 8.64127 51.3005 9.93247 51.3005 10.8593C51.3005 11.6379 51.8554 12.2696 52.54 12.2696C53.2246 12.2696 53.7805 11.6379 53.7805 10.8582C53.7805 8.49833 53.7805 3.77031 53.7805 1.41151C53.7805 0.631741 53.2246 0.000108433 52.54 0.000108433C51.8555 0.000108433 51.3005 0.631741 51.3005 1.41151C51.3005 2.33725 51.3005 3.62845 51.3005 4.99741C51.0441 4.99741 50.0311 4.99741 48.4756 4.99741C48.3604 4.68782 48.1843 4.39577 47.9372 4.14628C47.0087 3.20711 45.4985 3.20397 44.5667 4.13697L43.7061 4.99741C34.6736 4.99741 19.8287 4.99741 11.4055 4.99741L11.3695 4.9633C10.4338 4.0603 8.95639 4.08207 8.04227 4.99741C6.26335 4.99741 5.16794 4.99741 5.05985 4.99741C5.05985 3.62845 5.05985 2.33725 5.05985 1.41043C5.06093 0.630659 4.50499 0 3.82147 0ZM23.5563 7.27227C22.8048 8.2228 22.3375 9.40953 22.3375 10.7184C22.3375 13.7949 24.8154 16.2851 27.8708 16.2851C30.9294 16.2851 33.4061 13.7948 33.4061 10.7184C33.4061 9.40953 32.9388 8.22187 32.1873 7.27227C35.4713 7.27227 38.6431 7.27227 41.4319 7.27227L30.7924 17.9129H24.7906L13.7641 7.27227C16.6475 7.27227 20.0253 7.27227 23.5563 7.27227Z" fill="#2C2C2E"/>
<path d="M55.4581 10.3861C55.9749 10.3861 56.3929 9.96573 56.3929 9.44587C56.3929 7.81087 56.3929 4.461 56.3919 2.82599C56.3919 2.30513 55.9739 1.88477 55.4571 1.88477C55.418 1.88477 55.3779 1.88477 55.3367 1.88477C54.8209 1.88477 54.4019 2.30416 54.4019 2.82501C54.4019 4.46003 54.4019 7.81087 54.4019 9.44593C54.4019 9.9668 54.8209 10.3872 55.3367 10.3872C55.3779 10.3861 55.418 10.3861 55.4581 10.3861Z" fill="#2C2C2E"/>
<path d="M1.05622 10.3861C1.57297 10.3861 1.991 9.96573 1.991 9.44587C1.991 7.81087 1.991 4.461 1.991 2.82599C1.991 2.30513 1.57308 1.88477 1.05622 1.88477C1.01606 1.88477 0.975906 1.88477 0.933706 1.88477C0.419 1.88477 0 2.30416 0 2.82501C0 4.46003 0 7.81087 0 9.44593C0 9.9668 0.419 10.3872 0.93478 10.3872C0.975906 10.3861 1.01606 10.3861 1.05622 10.3861Z" fill="#2C2C2E"/>
</svg>
